<svg width="43" height="42" viewBox="0 0 43 42" fill="none" xmlns="http://www.w3.org/2000/svg">
<rect x="0.481516" y="0.481516" width="41.4104" height="40.9289" rx="20.4644" stroke="url(#paint0_linear_702_47)" stroke-width="0.963033"/>
<path d="M28.5304 14.5303C28.8232 14.2374 28.8232 13.7626 28.5304 13.4697C28.2375 13.1768 27.7626 13.1768 27.4697 13.4697L21 19.9394L14.5303 13.4697C14.2374 13.1768 13.7626 13.1768 13.4697 13.4697C13.1768 13.7626 13.1768 14.2374 13.4697 14.5303L19.9394 21L13.4697 27.4697C13.1768 27.7626 13.1768 28.2374 13.4697 28.5303C13.7626 28.8232 14.2375 28.8232 14.5304 28.5303L21 22.0607L27.4697 28.5303C27.7626 28.8232 28.2374 28.8232 28.5303 28.5303C28.8232 28.2374 28.8232 27.7626 28.5303 27.4697L22.0607 21L28.5304 14.5303Z" fill="#2D264B"/>
<defs>
<linearGradient id="paint0_linear_702_47" x1="1.92607" y1="-2.93799e-07" x2="46.7071" y2="54.8929" gradientUnits="userSpaceOnUse">
<stop stop-color="#7CB0C8"/>
<stop offset="0.8578" stop-color="#F1F0F0"/>
</linearGradient>
</defs>
</svg>
