<svg width="80" height="48" viewBox="0 0 80 48" fill="none" xmlns="http://www.w3.org/2000/svg">
<path d="M6.04886 10.8485L3.89873 13.1446V19.1001H0.601624V0.00125909H3.89873V8.96028L5.72365 6.69063L11.276 0H15.2648L8.214 8.46053L15.6688 19.0988H11.7588L6.05011 10.8472L6.04886 10.8485Z" fill="white"/>
<path d="M23.2511 19.3612C21.2435 19.3612 19.6162 18.7255 18.3704 17.4528C17.1234 16.1801 16.5005 14.4858 16.5005 12.3697V11.9757C16.5005 10.5583 16.7719 9.29315 17.3148 8.17783C17.8576 7.06252 18.6206 6.19519 19.6025 5.57459C20.5844 4.954 21.6788 4.64307 22.8871 4.64307C24.8071 4.64307 26.2905 5.25989 27.3374 6.49227C28.3843 7.72592 28.9084 9.46938 28.9084 11.7264V13.013H19.6938C19.7888 14.1849 20.1778 15.1114 20.8595 15.7937C21.5412 16.476 22.3993 16.8171 23.4337 16.8171C24.8846 16.8171 26.0666 16.2267 26.9797 15.046L28.687 16.6862C28.1217 17.5346 27.3687 18.193 26.4256 18.66C25.4825 19.127 24.4243 19.3624 23.2523 19.3624L23.2511 19.3612ZM22.8733 7.20225C22.004 7.20225 21.3023 7.50814 20.7682 8.11993C20.2341 8.73171 19.8927 9.58519 19.7451 10.6778H25.7802V10.4412C25.7101 9.37371 25.4287 8.56807 24.9334 8.02174C24.4381 7.47541 23.7514 7.20225 22.8733 7.20225Z" fill="white"/>
<path d="M34.1981 4.90588L34.2894 6.54612C35.3326 5.27849 36.7009 4.64404 38.3945 4.64404C41.3314 4.64404 42.8261 6.3359 42.8787 9.72086V19.0991H39.7116V9.90339C39.7116 9.00208 39.5178 8.33616 39.1313 7.90313C38.7448 7.47009 38.1119 7.25358 37.235 7.25358C35.958 7.25358 35.0061 7.83515 34.3807 8.9983V19.0991H31.2137V4.90588H34.1981Z" fill="white"/>
<path d="M53.4878 7.81753C53.0713 7.74703 52.641 7.71305 52.197 7.71305C50.746 7.71305 49.7679 8.27322 49.2638 9.39231V19.0991H46.0968V4.90588H49.1212L49.2 6.49325C49.9643 5.26086 51.025 4.64404 52.3808 4.64404C52.8324 4.64404 53.2064 4.70572 53.5015 4.82783L53.489 7.81879L53.4878 7.81753Z" fill="white"/>
<path d="M54.7349 11.8712C54.7349 10.4802 55.0089 9.22769 55.5555 8.11363C56.1033 6.99832 56.8713 6.14106 57.8619 5.54187C58.8526 4.94267 59.9908 4.64307 61.2766 4.64307C63.1791 4.64307 64.7238 5.25989 65.9109 6.49227C67.0966 7.72592 67.737 9.36112 67.8333 11.3979L67.8458 12.1456C67.8458 13.5454 67.5782 14.7954 67.0441 15.8969C66.51 16.9984 65.7445 17.8519 64.7501 18.4548C63.7557 19.0578 62.6062 19.3599 61.3029 19.3599C59.3129 19.3599 57.7206 18.6928 56.5261 17.3597C55.3316 16.0266 54.7337 14.2491 54.7337 12.0273V11.87L54.7349 11.8712ZM57.902 12.1469C57.902 13.6071 58.2022 14.7501 58.8013 15.5772C59.4017 16.403 60.2347 16.8171 61.3042 16.8171C62.3736 16.8171 63.2041 16.3967 63.7995 15.5583C64.3949 14.7187 64.6926 13.4901 64.6926 11.8725C64.6926 10.4387 64.3861 9.30196 63.7732 8.46233C63.1603 7.62269 62.3286 7.20351 61.2779 7.20351C60.2272 7.20351 59.423 7.6164 58.8138 8.44344C58.2059 9.27049 57.902 10.5054 57.902 12.1494V12.1469Z" fill="white"/>
<path d="M15.0809 36.1733C14.8895 38.2114 14.1428 39.8 12.8395 40.9417C11.5361 42.0835 9.80252 42.6537 7.63864 42.6537C6.12642 42.6537 4.79557 42.2925 3.64358 41.5711C2.4916 40.8498 1.60353 39.8239 0.978125 38.4959C0.352725 37.1678 0.0262668 35.6232 0 33.8659V32.0822C0 30.2808 0.316453 28.6934 0.951859 27.3213C1.58602 25.9492 2.4966 24.8905 3.68236 24.1466C4.86812 23.4039 6.23899 23.0312 7.79499 23.0312C9.88883 23.0312 11.5749 23.6015 12.852 24.7432C14.1303 25.8837 14.872 27.5001 15.0809 29.5897H11.7963C11.6399 28.2176 11.2422 27.2269 10.603 26.6189C9.96388 26.0109 9.02828 25.7075 7.79499 25.7075C6.36157 25.7075 5.25962 26.2349 4.49037 27.2898C3.72113 28.3447 3.32838 29.8918 3.31087 31.9311V33.6242C3.31087 35.6899 3.67735 37.266 4.41157 38.3511C5.14579 39.4362 6.22148 39.9787 7.63739 39.9787C8.93197 39.9787 9.90634 39.6854 10.558 39.1001C11.2097 38.5147 11.6224 37.5391 11.7963 36.1746H15.0809V36.1733Z" fill="white"/>
<path d="M26.0393 42.3918C25.9004 42.1211 25.7791 41.6793 25.674 41.0675C24.6659 42.1261 23.4326 42.6548 21.9729 42.6548C20.5132 42.6548 19.4 42.2483 18.5057 41.4351C17.6101 40.6219 17.1636 39.6161 17.1636 38.4177C17.1636 36.9046 17.7214 35.7439 18.8384 34.9358C19.9554 34.1263 21.5514 33.7223 23.629 33.7223H25.5715V32.7907C25.5715 32.0568 25.3663 31.4677 24.9586 31.0271C24.5508 30.5865 23.9292 30.365 23.0949 30.365C22.3732 30.365 21.7828 30.5463 21.3225 30.9088C20.8609 31.2713 20.632 31.7333 20.632 32.2922H17.465C17.465 31.5143 17.7214 30.7854 18.2343 30.1082C18.7471 29.4309 19.445 28.8997 20.3268 28.5145C21.2087 28.1293 22.193 27.938 23.2787 27.938C24.9298 27.938 26.2456 28.3559 27.2275 29.1905C28.2094 30.0264 28.7135 31.1996 28.7397 32.7127V39.1138C28.7397 40.3902 28.9173 41.4099 29.2738 42.1702V42.393H26.0418L26.0393 42.3918ZM22.5595 40.0957C23.1849 40.0957 23.7728 39.9434 24.3257 39.6362C24.8773 39.3303 25.2925 38.9199 25.5702 38.4038V35.7276H23.8629C22.6896 35.7276 21.8078 35.934 21.2174 36.3444C20.6258 36.756 20.3319 37.3376 20.3319 38.0891C20.3319 38.7009 20.5332 39.1893 20.9372 39.5519C21.3412 39.9144 21.8816 40.0957 22.5595 40.0957Z" fill="white"/>
<path d="M44.2709 35.4394C44.2709 37.6347 43.7756 39.3858 42.785 40.6924C41.7943 42.0003 40.4647 42.6537 38.7961 42.6537C37.2489 42.6537 36.0119 42.1426 35.0813 41.1192V47.8488H31.9142V28.1986H34.8336L34.9637 29.6412C35.893 28.5045 37.1576 27.9355 38.7561 27.9355C40.4772 27.9355 41.8256 28.5801 42.8037 29.8704C43.7818 31.1606 44.2697 32.9507 44.2697 35.2417V35.4381L44.2709 35.4394ZM41.1176 35.1637C41.1176 33.7463 40.8375 32.6234 40.2771 31.7926C39.7167 30.9617 38.915 30.5463 37.8731 30.5463C36.5785 30.5463 35.6491 31.0839 35.0838 32.1601V38.4568C35.6579 39.5582 36.596 40.1096 37.8993 40.1096C38.9075 40.1096 39.6955 39.7005 40.2646 38.8835C40.8337 38.0653 41.1189 36.8266 41.1189 35.1649L41.1176 35.1637Z" fill="white"/>
<path d="M46.85 24.5125C46.85 24.0229 47.0039 23.6163 47.3128 23.2928C47.6205 22.9692 48.0621 22.8081 48.6362 22.8081C49.2103 22.8081 49.6518 22.9705 49.9658 23.2928C50.2785 23.6163 50.4348 24.0229 50.4348 24.5125C50.4348 25.0022 50.2785 25.3937 49.9658 25.7122C49.6531 26.0319 49.2103 26.1906 48.6362 26.1906C48.0621 26.1906 47.6218 26.0319 47.3128 25.7122C47.0039 25.3937 46.85 24.9934 46.85 24.5125ZM50.2122 42.3916H47.0452V28.1984H50.2122V42.3916Z" fill="white"/>
<path d="M57.6294 24.7485V28.1977H60.1185V30.5592H57.6294V38.4823C57.6294 39.0248 57.7358 39.4163 57.9484 39.6555C58.161 39.8959 58.5413 40.0168 59.0891 40.0168C59.4544 40.0168 59.8233 39.9727 60.1973 39.8858V42.3519C59.4756 42.5533 58.7802 42.654 58.1122 42.654C55.6794 42.654 54.4637 41.3033 54.4637 38.6006V30.5592H52.1434V28.1977H54.4637V24.7485H57.6307H57.6294Z" fill="white"/>
<path d="M70.749 42.3918C70.6102 42.1211 70.4889 41.6793 70.3838 41.0675C69.3757 42.1261 68.1424 42.6548 66.6827 42.6548C65.223 42.6548 64.1098 42.2483 63.2155 41.4351C62.3199 40.6219 61.8734 39.6161 61.8734 38.4177C61.8734 36.9046 62.4312 35.7439 63.5482 34.9358C64.6651 34.1263 66.2612 33.7223 68.3387 33.7223H70.2812V32.7907C70.2812 32.0568 70.0761 31.4677 69.6683 31.0271C69.2606 30.5865 68.6389 30.365 67.8047 30.365C67.0829 30.365 66.4926 30.5463 66.0323 30.9088C65.5707 31.2713 65.3418 31.7333 65.3418 32.2922H62.1748C62.1748 31.5143 62.4312 30.7854 62.944 30.1082C63.4569 29.4309 64.1548 28.8997 65.0366 28.5145C65.9184 28.1293 66.9028 27.938 67.9885 27.938C69.6396 27.938 70.9554 28.3559 71.9373 29.1905C72.9192 30.0264 73.4232 31.1996 73.4495 32.7127V39.1138C73.4495 40.3902 73.6271 41.4099 73.9836 42.1702V42.393H70.7515L70.749 42.3918ZM67.2681 40.0957C67.8935 40.0957 68.4813 39.9434 69.0342 39.6362C69.5858 39.3303 70.0011 38.9199 70.2787 38.4038V35.7276H68.5714C67.3981 35.7276 66.5163 35.934 65.9259 36.3444C65.3343 36.756 65.0404 37.3376 65.0404 38.0891C65.0404 38.7009 65.2418 39.1893 65.6458 39.5519C66.0498 39.9144 66.5901 40.0957 67.2681 40.0957Z" fill="white"/>
<path d="M79.9999 42.3918H76.8329V22.2432H79.9999V42.3918Z" fill="white"/>
</svg>
