<svg width="173" height="102" viewBox="0 0 173 102" fill="none" xmlns="http://www.w3.org/2000/svg">
<path d="M13.0709 23.6171L8.42485 28.4813V41.0978H1.30029V0.637433H8.42485V19.6169L12.3682 14.8087L24.3659 0.634766H32.9851L17.7495 18.5582L33.8581 41.0952H25.4092L13.0737 23.6144L13.0709 23.6171Z" fill="#1B6B90"/>
<path d="M50.2424 41.6532C45.9044 41.6532 42.3881 40.3064 39.6961 37.6103C37.0014 34.9142 35.6555 31.3247 35.6555 26.8419V26.0072C35.6555 23.0044 36.242 20.3242 37.415 17.9615C38.588 15.5987 40.2367 13.7613 42.3584 12.4466C44.4801 11.1318 46.845 10.4731 49.4559 10.4731C53.6047 10.4731 56.8102 11.7799 59.0724 14.3906C61.3347 17.0041 62.4671 20.6976 62.4671 25.4791V28.2046H42.5557C42.7611 30.6874 43.6017 32.6501 45.0747 34.0955C46.5477 35.5409 48.4018 36.2636 50.637 36.2636C53.7723 36.2636 56.3264 35.0129 58.2994 32.5114L61.9888 35.9863C60.7671 37.7837 59.14 39.1784 57.1021 40.1678C55.0642 41.1571 52.7776 41.6558 50.2451 41.6558L50.2424 41.6532ZM49.4262 15.8947C47.5477 15.8947 46.0315 16.5427 44.8774 17.8388C43.7233 19.1349 42.9854 20.9429 42.6665 23.2577H55.7075V22.7563C55.5561 20.4949 54.948 18.7882 53.8777 17.6308C52.8074 16.4734 51.3235 15.8947 49.4262 15.8947Z" fill="#1B6B90"/>
<path d="M73.8973 11.0298L74.0946 14.5046C76.3487 11.8192 79.3056 10.4751 82.9651 10.4751C89.3113 10.4751 92.5411 14.0593 92.6547 21.2302V41.0977H85.8112V21.6169C85.8112 19.7075 85.3923 18.2968 84.5571 17.3794C83.7219 16.462 82.3543 16.0033 80.4597 16.0033C77.7001 16.0033 75.6433 17.2354 74.2919 19.6995V41.0977H67.4484V11.0298H73.8973Z" fill="#1B6B90"/>
<path d="M115.579 17.1981C114.679 17.0487 113.75 16.9767 112.79 16.9767C109.655 16.9767 107.541 18.1634 106.452 20.5342V41.0977H99.6086V11.0298H106.144L106.314 14.3926C107.966 11.7818 110.258 10.4751 113.187 10.4751C114.163 10.4751 114.971 10.6058 115.609 10.8644L115.582 17.2007L115.579 17.1981Z" fill="#1B6B90"/>
<path d="M118.275 25.7858C118.275 22.839 118.866 20.1856 120.048 17.8255C121.231 15.4627 122.891 13.6466 125.032 12.3772C127.172 11.1078 129.632 10.4731 132.41 10.4731C136.521 10.4731 139.859 11.7799 142.424 14.3906C144.986 17.0041 146.37 20.4682 146.578 24.7831L146.605 26.3672C146.605 29.3326 146.027 31.9807 144.873 34.3142C143.719 36.6476 142.065 38.4557 139.916 39.7331C137.767 41.0105 135.283 41.6505 132.467 41.6505C128.167 41.6505 124.726 40.2371 122.145 37.413C119.564 34.5889 118.272 30.8234 118.272 26.1165V25.7831L118.275 25.7858ZM125.118 26.3698C125.118 29.4633 125.767 31.8847 127.061 33.6368C128.359 35.3862 130.159 36.2636 132.47 36.2636C134.78 36.2636 136.575 35.3729 137.862 33.5968C139.148 31.8181 139.791 29.2153 139.791 25.7885C139.791 22.751 139.129 20.3429 137.805 18.5642C136.481 16.7854 134.683 15.8974 132.413 15.8974C130.142 15.8974 128.405 16.7721 127.088 18.5242C125.775 20.2762 125.118 22.8924 125.118 26.3752V26.3698Z" fill="#1B6B90"/>
<path d="M32.5876 77.265C32.174 81.5826 30.5605 84.948 27.7441 87.3668C24.9278 89.7856 21.1818 90.9936 16.5059 90.9936C13.2383 90.9936 10.3625 90.2283 7.87323 88.7002C5.38396 87.1721 3.46498 84.9987 2.11358 82.1852C0.762185 79.3718 0.0567586 76.0996 0 72.3768V68.598C0 64.7818 0.683806 61.419 2.05682 58.5122C3.42714 55.6054 5.39477 53.3627 7.95702 51.7866C10.5193 50.2132 13.4815 49.4238 16.8438 49.4238C21.3683 49.4238 25.0116 50.6319 27.7712 53.0507C30.5334 55.4668 32.1362 58.8909 32.5876 63.3178H25.49C25.1522 60.411 24.2927 58.3122 22.9116 57.0242C21.5304 55.7361 19.5087 55.0934 16.8438 55.0934C13.7464 55.0934 11.3652 56.2108 9.70302 58.4456C8.0408 60.6803 7.19213 63.9578 7.15429 68.278V71.8648C7.15429 76.241 7.94621 79.5798 9.53275 81.8786C11.1193 84.1773 13.4437 85.3267 16.5032 85.3267C19.3006 85.3267 21.4061 84.7054 22.8143 83.4653C24.2224 82.2252 25.1143 80.1585 25.49 77.2677H32.5876V77.265Z" fill="#1B6B90"/>
<path d="M56.2667 90.4388C55.9666 89.8655 55.7045 88.9294 55.4774 87.6334C53.299 89.8761 50.634 90.9962 47.4799 90.9962C44.3257 90.9962 41.9202 90.1348 39.9877 88.4121C38.0525 86.6893 37.0876 84.5586 37.0876 82.0198C37.0876 78.8143 38.2931 76.3556 40.7067 74.6435C43.1203 72.9287 46.569 72.0727 51.0584 72.0727H55.2558V70.0993C55.2558 68.5446 54.8126 67.2965 53.9314 66.3631C53.0503 65.4298 51.707 64.9604 49.9043 64.9604C48.3448 64.9604 47.0691 65.3444 46.0744 66.1125C45.0771 66.8805 44.5825 67.8592 44.5825 69.0432H37.739C37.739 67.3952 38.2931 65.8511 39.4012 64.4164C40.5094 62.9816 42.0175 61.8563 43.923 61.0402C45.8285 60.2242 47.9556 59.8188 50.3016 59.8188C53.8693 59.8188 56.7126 60.7042 58.8343 62.4723C60.956 64.243 62.0452 66.7285 62.102 69.934V83.4945C62.102 86.1987 62.4858 88.3587 63.2561 89.9695V90.4415H56.2721L56.2667 90.4388ZM48.7475 85.5746C50.0989 85.5746 51.3692 85.2519 52.5638 84.6013C53.7558 83.9532 54.6531 83.0839 55.2531 81.9905V76.3209H51.5638C49.0286 76.3209 47.1231 76.7582 45.8474 77.6276C44.569 78.4997 43.9338 79.7317 43.9338 81.3238C43.9338 82.6198 44.369 83.6545 45.242 84.4226C46.115 85.1906 47.2826 85.5746 48.7475 85.5746Z" fill="#1B6B90"/>
<path d="M95.6622 75.7106C95.6622 80.3615 94.5919 84.071 92.4513 86.8391C90.3107 89.6099 87.4376 90.994 83.8321 90.994C80.4888 90.994 77.8157 89.9113 75.8048 87.7432V102H68.9614V60.3713H75.2697L75.5508 63.4275C77.5589 61.0193 80.2915 59.814 83.7456 59.814C87.4647 59.814 90.3783 61.1794 92.4919 63.9128C94.6054 66.6463 95.6595 70.4384 95.6595 75.292V75.708L95.6622 75.7106ZM88.8485 75.1266C88.8485 72.1238 88.2431 69.7451 87.0322 67.985C85.8214 66.2249 84.0889 65.3449 81.8375 65.3449C79.0401 65.3449 77.0319 66.4836 75.8102 68.7637V82.1029C77.0508 84.4364 79.0779 85.6044 81.8942 85.6044C84.0727 85.6044 85.7754 84.7377 87.0052 83.007C88.235 81.2736 88.8512 78.6494 88.8512 75.1293L88.8485 75.1266Z" fill="#1B6B90"/>
<path d="M101.235 52.563C101.235 51.5256 101.568 50.6642 102.235 49.9789C102.9 49.2935 103.854 48.9521 105.095 48.9521C106.336 48.9521 107.29 49.2962 107.968 49.9789C108.644 50.6642 108.982 51.5256 108.982 52.563C108.982 53.6004 108.644 54.4297 107.968 55.1044C107.292 55.7818 106.336 56.1178 105.095 56.1178C103.854 56.1178 102.903 55.7818 102.235 55.1044C101.568 54.4297 101.235 53.5817 101.235 52.563ZM108.5 90.4393H101.657V60.3713H108.5V90.4393Z" fill="#1B6B90"/>
<path d="M124.528 53.0615V60.3685H129.906V65.3714H124.528V82.1561C124.528 83.3055 124.757 84.1349 125.217 84.6416C125.676 85.1509 126.498 85.4069 127.682 85.4069C128.471 85.4069 129.268 85.3136 130.077 85.1296V90.3538C128.517 90.7805 127.014 90.9938 125.571 90.9938C120.314 90.9938 117.687 88.1324 117.687 82.4068V65.3714H112.673V60.3685H117.687V53.0615H124.53H124.528Z" fill="#1B6B90"/>
<path d="M152.878 90.4388C152.578 89.8655 152.316 88.9294 152.089 87.6334C149.91 89.8761 147.245 90.9962 144.091 90.9962C140.937 90.9962 138.532 90.1348 136.599 88.4121C134.664 86.6893 133.699 84.5586 133.699 82.0198C133.699 78.8143 134.904 76.3556 137.318 74.6435C139.732 72.9287 143.18 72.0727 147.67 72.0727H151.867V70.0993C151.867 68.5446 151.424 67.2965 150.543 66.3631C149.662 65.4298 148.318 64.9604 146.516 64.9604C144.956 64.9604 143.68 65.3444 142.686 66.1125C141.688 66.8805 141.194 67.8592 141.194 69.0432H134.35C134.35 67.3952 134.904 65.8511 136.013 64.4164C137.121 62.9816 138.629 61.8563 140.534 61.0402C142.44 60.2242 144.567 59.8188 146.913 59.8188C150.481 59.8188 153.324 60.7042 155.446 62.4723C157.567 64.243 158.657 66.7285 158.713 69.934V83.4945C158.713 86.1987 159.097 88.3587 159.867 89.9695V90.4415H152.883L152.878 90.4388ZM145.356 85.5746C146.708 85.5746 147.978 85.2519 149.172 84.6013C150.364 83.9532 151.262 83.0839 151.862 81.9905V76.3209H148.172C145.637 76.3209 143.732 76.7582 142.456 77.6276C141.178 78.4997 140.542 79.7317 140.542 81.3238C140.542 82.6198 140.978 83.6545 141.851 84.4226C142.724 85.1906 143.891 85.5746 145.356 85.5746Z" fill="#1B6B90"/>
<path d="M172.868 90.4399H166.024V47.7554H172.868V90.4399Z" fill="#1B6B90"/>
</svg>
