<svg width="302" height="86" viewBox="0 0 302 86" fill="none" xmlns="http://www.w3.org/2000/svg">
<path d="M24.4309 48.5602L14.7875 58.6562V84.8428H0V0.864179H14.7875V40.2575L22.9723 30.2777L47.8744 0.858643H65.7642L34.1415 38.0601L67.5761 84.8372H50.0398L24.4365 48.5546L24.4309 48.5602Z" fill="#1B6B90"/>
<path d="M101.583 85.9943C92.579 85.9943 85.2806 83.199 79.6932 77.6031C74.1002 72.0071 71.3065 64.5568 71.3065 55.2523V53.5198C71.3065 47.2873 72.5239 41.7245 74.9585 36.8204C77.3932 31.9163 80.8152 28.1026 85.2189 25.3738C89.6227 22.645 94.5313 21.2778 99.9504 21.2778C108.561 21.2778 115.215 23.99 119.91 29.4089C124.606 34.8333 126.956 42.4994 126.956 52.4239V58.0807H85.6285C86.0548 63.2339 87.7995 67.3078 90.8568 70.3078C93.9142 73.3078 97.7625 74.8078 102.402 74.8078C108.909 74.8078 114.211 72.2119 118.306 67.0199L125.963 74.2322C123.428 77.9628 120.05 80.8577 115.821 82.9112C111.591 84.9647 106.845 85.9998 101.588 85.9998L101.583 85.9943ZM99.8887 32.5307C95.9898 32.5307 92.8427 33.8757 90.4473 36.5658C88.0519 39.2559 86.5204 43.0087 85.8584 47.8131H112.926V46.7725C112.612 42.0788 111.35 38.5363 109.128 36.1341C106.907 33.7318 103.827 32.5307 99.8887 32.5307Z" fill="#1B6B90"/>
<path d="M150.68 22.4347L151.089 29.647C155.768 24.0731 161.905 21.2834 169.501 21.2834C182.673 21.2834 189.377 28.7226 189.612 43.6065V84.843H175.408V44.4091C175.408 40.446 174.539 37.5179 172.805 35.6138C171.072 33.7098 168.233 32.7577 164.301 32.7577C158.573 32.7577 154.304 35.3149 151.499 40.4294V84.843H137.295V22.4347H150.68Z" fill="#1B6B90"/>
<path d="M237.195 35.2374C235.327 34.9275 233.397 34.778 231.405 34.778C224.898 34.778 220.511 37.2411 218.25 42.1619V84.843H204.046V22.4347H217.611L217.964 29.4145C221.392 23.9956 226.149 21.2834 232.23 21.2834C234.255 21.2834 235.932 21.5547 237.256 22.0916L237.2 35.243L237.195 35.2374Z" fill="#1B6B90"/>
<path d="M242.788 53.0604C242.788 46.9441 244.016 41.4367 246.468 36.5381C248.925 31.634 252.369 27.8646 256.812 25.2299C261.255 22.5952 266.36 21.2778 272.127 21.2778C280.66 21.2778 287.588 23.99 292.912 29.4089C298.23 34.8333 301.102 42.0234 301.534 50.9792L301.59 54.267C301.59 60.4221 300.39 65.9184 297.994 70.7617C295.599 75.6049 292.166 79.3577 287.706 82.009C283.246 84.6603 278.091 85.9887 272.245 85.9887C263.32 85.9887 256.179 83.0551 250.821 77.1934C245.464 71.3318 242.782 63.5162 242.782 53.7467V53.0549L242.788 53.0604ZM256.992 54.2726C256.992 60.6933 258.338 65.7192 261.025 69.3557C263.718 72.9868 267.454 74.8078 272.251 74.8078C277.047 74.8078 280.772 72.9591 283.442 69.2727C286.113 65.5808 287.448 60.1785 287.448 53.0659C287.448 46.7614 286.073 41.7633 283.325 38.0713C280.576 34.3794 276.845 32.5362 272.133 32.5362C267.421 32.5362 263.814 34.3517 261.082 37.9883C258.355 41.6249 256.992 47.0548 256.992 54.2836V54.2726Z" fill="#1B6B90"/>
</svg>
