<svg width="271" height="226" viewBox="0 0 271 226" fill="none" xmlns="http://www.w3.org/2000/svg">
<rect opacity="0.6" x="43.5" y="49.291" width="176.209" height="176.209" fill="url(#paint0_linear_631_39)" fill-opacity="0.37" stroke="url(#paint1_linear_631_39)"/>
<rect opacity="0.6" x="70.5" y="23.5" width="176.209" height="176.209" fill="url(#paint2_linear_631_39)" fill-opacity="0.37" stroke="url(#paint3_linear_631_39)"/>
<rect opacity="0.6" x="93.5" y="0.5" width="176.209" height="176.209" fill="url(#paint4_linear_631_39)" fill-opacity="0.37" stroke="url(#paint5_linear_631_39)"/>
<path d="M15.0234 160.695V166.906H12.6328V160.695H15.0234ZM14.9531 199.086V204.875H12.5625V199.086H14.9531ZM21.1406 191.586C21.1406 190.43 20.8984 189.43 20.4141 188.586C19.9453 187.727 19.1484 186.953 18.0234 186.266C16.9141 185.562 15.3984 184.875 13.4766 184.203C11.5078 183.562 9.80469 182.836 8.36719 182.023C6.94531 181.211 5.84375 180.195 5.0625 178.977C4.29688 177.742 3.91406 176.195 3.91406 174.336C3.91406 172.508 4.3125 170.922 5.10938 169.578C5.92188 168.234 7.07031 167.203 8.55469 166.484C10.0391 165.75 11.7812 165.383 13.7812 165.383C15.3281 165.383 16.7109 165.609 17.9297 166.062C19.1641 166.516 20.2031 167.195 21.0469 168.102C21.9062 168.992 22.5625 170.094 23.0156 171.406C23.4688 172.703 23.6953 174.203 23.6953 175.906H20.9062C20.9062 174.75 20.75 173.688 20.4375 172.719C20.1406 171.75 19.6875 170.906 19.0781 170.188C18.4688 169.453 17.7188 168.891 16.8281 168.5C15.9531 168.094 14.9375 167.891 13.7812 167.891C12.1719 167.891 10.8438 168.18 9.79688 168.758C8.75 169.336 7.97656 170.109 7.47656 171.078C6.97656 172.047 6.72656 173.109 6.72656 174.266C6.72656 175.406 6.9375 176.406 7.35938 177.266C7.78125 178.125 8.54688 178.906 9.65625 179.609C10.7656 180.297 12.3594 180.992 14.4375 181.695C16.4062 182.336 18.0938 183.062 19.5 183.875C20.9219 184.688 22.0156 185.703 22.7812 186.922C23.5469 188.125 23.9297 189.664 23.9297 191.539C23.9297 193.43 23.5 195.047 22.6406 196.391C21.7812 197.719 20.5781 198.734 19.0312 199.438C17.4844 200.141 15.6797 200.492 13.6172 200.492C12.2891 200.492 10.9766 200.32 9.67969 199.977C8.38281 199.617 7.21094 199.039 6.16406 198.242C5.11719 197.445 4.28125 196.391 3.65625 195.078C3.03125 193.75 2.71875 192.117 2.71875 190.18H5.50781C5.50781 191.695 5.75 192.953 6.23438 193.953C6.71875 194.953 7.35156 195.75 8.13281 196.344C8.92969 196.938 9.80469 197.359 10.7578 197.609C11.7109 197.859 12.6641 197.984 13.6172 197.984C15.2109 197.984 16.5625 197.703 17.6719 197.141C18.7969 196.562 19.6562 195.789 20.25 194.82C20.8438 193.836 21.1406 192.758 21.1406 191.586ZM41.9306 165.734V200H39.1416V169.273L29.8603 172.719V170.07L41.4619 165.734H41.9306ZM75.1191 180.008V185.75C75.1191 188.25 74.8847 190.43 74.4159 192.289C73.9472 194.133 73.2597 195.664 72.3534 196.883C71.4628 198.086 70.3691 198.984 69.0722 199.578C67.7909 200.172 66.3222 200.469 64.6659 200.469C63.3534 200.469 62.1503 200.281 61.0566 199.906C59.9628 199.531 58.9863 198.961 58.1269 198.195C57.2831 197.414 56.5644 196.438 55.9706 195.266C55.3769 194.094 54.9238 192.719 54.6113 191.141C54.2988 189.547 54.1425 187.75 54.1425 185.75V180.008C54.1425 177.492 54.3769 175.32 54.8456 173.492C55.33 171.664 56.0175 170.148 56.9081 168.945C57.8144 167.742 58.9159 166.852 60.2128 166.273C61.5097 165.68 62.9784 165.383 64.6191 165.383C65.9316 165.383 67.1347 165.578 68.2284 165.969C69.3378 166.344 70.3144 166.906 71.1581 167.656C72.0175 168.406 72.7363 169.367 73.3144 170.539C73.9081 171.695 74.3534 173.062 74.6503 174.641C74.9628 176.219 75.1191 178.008 75.1191 180.008ZM72.33 186.078V179.656C72.33 178.109 72.2206 176.703 72.0019 175.438C71.7988 174.172 71.4941 173.062 71.0878 172.109C70.6816 171.156 70.1659 170.359 69.5409 169.719C68.9316 169.078 68.2128 168.602 67.3847 168.289C66.5722 167.961 65.6503 167.797 64.6191 167.797C63.3534 167.797 62.2363 168.055 61.2675 168.57C60.3144 169.07 59.5175 169.82 58.8769 170.82C58.2363 171.805 57.7519 173.039 57.4238 174.523C57.1113 176.008 56.955 177.719 56.955 179.656V186.078C56.955 187.609 57.0566 189.008 57.2597 190.273C57.4628 191.523 57.7753 192.633 58.1972 193.602C58.6191 194.57 59.1347 195.391 59.7441 196.062C60.3691 196.719 61.0878 197.219 61.9003 197.562C62.7284 197.891 63.6503 198.055 64.6659 198.055C65.9628 198.055 67.0878 197.797 68.0409 197.281C68.9941 196.75 69.7909 195.977 70.4316 194.961C71.0722 193.93 71.5488 192.672 71.8613 191.188C72.1738 189.688 72.33 187.984 72.33 186.078ZM100.784 180.008V185.75C100.784 188.25 100.55 190.43 100.081 192.289C99.6122 194.133 98.9247 195.664 98.0184 196.883C97.1278 198.086 96.0341 198.984 94.7372 199.578C93.4559 200.172 91.9872 200.469 90.3309 200.469C89.0184 200.469 87.8153 200.281 86.7216 199.906C85.6278 199.531 84.6513 198.961 83.7919 198.195C82.9481 197.414 82.2294 196.438 81.6356 195.266C81.0419 194.094 80.5888 192.719 80.2763 191.141C79.9638 189.547 79.8075 187.75 79.8075 185.75V180.008C79.8075 177.492 80.0419 175.32 80.5106 173.492C80.995 171.664 81.6825 170.148 82.5731 168.945C83.4794 167.742 84.5809 166.852 85.8778 166.273C87.1747 165.68 88.6434 165.383 90.2841 165.383C91.5966 165.383 92.7997 165.578 93.8934 165.969C95.0028 166.344 95.9794 166.906 96.8231 167.656C97.6825 168.406 98.4013 169.367 98.9794 170.539C99.5731 171.695 100.018 173.062 100.315 174.641C100.628 176.219 100.784 178.008 100.784 180.008ZM97.995 186.078V179.656C97.995 178.109 97.8856 176.703 97.6669 175.438C97.4638 174.172 97.1591 173.062 96.7528 172.109C96.3466 171.156 95.8309 170.359 95.2059 169.719C94.5966 169.078 93.8778 168.602 93.0497 168.289C92.2372 167.961 91.3153 167.797 90.2841 167.797C89.0184 167.797 87.9013 168.055 86.9325 168.57C85.9794 169.07 85.1825 169.82 84.5419 170.82C83.9013 171.805 83.4169 173.039 83.0888 174.523C82.7763 176.008 82.62 177.719 82.62 179.656V186.078C82.62 187.609 82.7216 189.008 82.9247 190.273C83.1278 191.523 83.4403 192.633 83.8622 193.602C84.2841 194.57 84.7997 195.391 85.4091 196.062C86.0341 196.719 86.7528 197.219 87.5653 197.562C88.3934 197.891 89.3153 198.055 90.3309 198.055C91.6278 198.055 92.7528 197.797 93.7059 197.281C94.6591 196.75 95.4559 195.977 96.0966 194.961C96.7372 193.93 97.2138 192.672 97.5263 191.188C97.8388 189.688 97.995 187.984 97.995 186.078ZM118.738 183.594H109.129L109.082 181.156H117.355C119.043 181.156 120.48 180.914 121.668 180.43C122.855 179.945 123.754 179.227 124.363 178.273C124.988 177.305 125.301 176.117 125.301 174.711C125.301 173.273 124.996 172.086 124.387 171.148C123.777 170.195 122.863 169.492 121.644 169.039C120.426 168.586 118.894 168.359 117.051 168.359H109.879V200H106.996V165.875H117.051C118.785 165.875 120.34 166.047 121.715 166.391C123.09 166.734 124.262 167.273 125.23 168.008C126.199 168.742 126.933 169.672 127.433 170.797C127.949 171.906 128.207 173.234 128.207 174.781C128.207 176.188 127.894 177.461 127.269 178.602C126.644 179.727 125.762 180.648 124.621 181.367C123.496 182.07 122.144 182.508 120.566 182.68L118.738 183.594ZM118.527 200H108.215L109.691 197.539H118.527C120.215 197.539 121.652 197.258 122.84 196.695C124.043 196.117 124.965 195.297 125.605 194.234C126.246 193.172 126.566 191.906 126.566 190.438C126.566 189.141 126.285 187.977 125.723 186.945C125.16 185.914 124.301 185.102 123.144 184.508C121.988 183.898 120.519 183.594 118.738 183.594H112.762L112.808 181.156H121.269L121.785 182.023C123.316 182.18 124.652 182.656 125.793 183.453C126.949 184.234 127.84 185.227 128.465 186.43C129.105 187.633 129.426 188.953 129.426 190.391C129.426 192.453 128.965 194.203 128.043 195.641C127.137 197.062 125.863 198.148 124.223 198.898C122.598 199.633 120.699 200 118.527 200ZM137.606 180.055V200H134.817V174.641H137.489L137.606 180.055ZM136.973 185.75L135.731 185.047C135.825 183.547 136.13 182.141 136.645 180.828C137.161 179.516 137.856 178.359 138.731 177.359C139.622 176.359 140.661 175.578 141.848 175.016C143.052 174.453 144.38 174.172 145.833 174.172C147.098 174.172 148.231 174.344 149.231 174.688C150.231 175.031 151.083 175.578 151.786 176.328C152.489 177.078 153.02 178.039 153.38 179.211C153.755 180.383 153.942 181.812 153.942 183.5V200H151.13V183.477C151.13 181.727 150.887 180.359 150.403 179.375C149.919 178.375 149.231 177.664 148.341 177.242C147.45 176.82 146.395 176.609 145.177 176.609C143.833 176.609 142.653 176.906 141.637 177.5C140.637 178.078 139.794 178.836 139.106 179.773C138.434 180.695 137.919 181.688 137.559 182.75C137.2 183.797 137.005 184.797 136.973 185.75Z" fill="#E97132"/>
<defs>
<linearGradient id="paint0_linear_631_39" x1="220" y1="45" x2="94.7771" y2="159.273" gradientUnits="userSpaceOnUse">
<stop stop-color="#E97132"/>
<stop offset="1" stop-color="white" stop-opacity="0"/>
</linearGradient>
<linearGradient id="paint1_linear_631_39" x1="214.01" y1="48.791" x2="80.192" y2="162.555" gradientUnits="userSpaceOnUse">
<stop stop-color="#E97132"/>
<stop offset="1" stop-color="white"/>
</linearGradient>
<linearGradient id="paint2_linear_631_39" x1="247" y1="19.209" x2="121.777" y2="133.482" gradientUnits="userSpaceOnUse">
<stop stop-color="#E97132"/>
<stop offset="1" stop-color="white" stop-opacity="0"/>
</linearGradient>
<linearGradient id="paint3_linear_631_39" x1="241.01" y1="23" x2="107.192" y2="136.764" gradientUnits="userSpaceOnUse">
<stop stop-color="#E97132"/>
<stop offset="1" stop-color="white"/>
</linearGradient>
<linearGradient id="paint4_linear_631_39" x1="270" y1="-3.79101" x2="144.777" y2="110.482" gradientUnits="userSpaceOnUse">
<stop stop-color="#E97132"/>
<stop offset="1" stop-color="white" stop-opacity="0"/>
</linearGradient>
<linearGradient id="paint5_linear_631_39" x1="264.01" y1="3.73803e-06" x2="130.192" y2="113.764" gradientUnits="userSpaceOnUse">
<stop stop-color="#E97132"/>
<stop offset="1" stop-color="white"/>
</linearGradient>
</defs>
</svg>
