<?xml version="1.0" encoding="UTF-8"?>
<svg xmlns="http://www.w3.org/2000/svg" version="1.1" viewBox="0 0 800 561">
  <defs>
    <style>
      .cls-1 {
        fill: #f9a000;
      }

      .cls-1, .cls-2, .cls-3 {
        fill-rule: evenodd;
      }

      .cls-4 {
        fill: #fff;
        stroke: #d9d9d9;
        stroke-miterlimit: 45.7;
        stroke-width: 11.4px;
      }

      .cls-2 {
        fill: #ed0006;
      }

      .cls-3 {
        fill: #ff5e00;
      }
    </style>
  </defs>
  <!-- Generator: Adobe Illustrator 28.6.0, SVG Export Plug-In . SVG Version: 1.2.0 Build 709)  -->
  <g>
    <g id="Layer_1">
      <rect class="cls-4" x="5.7" y="11.4" width="788.6" height="537.1" rx="62.9" ry="62.9"/>
      <path class="cls-2" d="M404.5,403c-27.2,23.5-62.6,37.7-101.2,37.7-86.1,0-156-70.6-156-157.8s69.8-157.8,156-157.8,73.9,14.2,101.2,37.7c27.2-23.5,62.6-37.7,101.2-37.7,86.1,0,156,70.6,156,157.8s-69.8,157.8-156,157.8-73.9-14.2-101.2-37.7Z"/>
      <path class="cls-1" d="M404.5,403c33.5-28.9,54.8-72,54.8-120.1s-21.3-91.2-54.8-120.1c27.2-23.5,62.6-37.7,101.2-37.7,86.1,0,156,70.6,156,157.8s-69.8,157.8-156,157.8-73.9-14.2-101.2-37.7Z"/>
      <path class="cls-3" d="M404.5,162.8c33.5,28.9,54.8,72,54.8,120.1s-21.3,91.1-54.8,120.1c-33.5-28.9-54.8-72-54.8-120.1s21.3-91.1,54.8-120.1Z"/>
    </g>
  </g>
</svg>