<svg width="43" height="42" viewBox="0 0 43 42" fill="none" xmlns="http://www.w3.org/2000/svg">
<rect x="0.481516" y="0.481516" width="41.4104" height="40.9289" rx="20.4644" stroke="url(#paint0_linear_702_47)" stroke-width="0.963033"/>
<path d="M18.0568 14.4453C17.6579 14.4453 17.3346 14.7687 17.3346 15.1676C17.3346 15.5665 17.6579 15.8899 18.0568 15.8899H23.835C24.2339 15.8899 24.5573 15.5665 24.5573 15.1676C24.5573 14.7687 24.2339 14.4453 23.835 14.4453H18.0568Z" fill="#1B6B90"/>
<path d="M14.2047 20.2235C13.8058 20.2235 13.4824 20.5469 13.4824 20.9458C13.4824 21.3447 13.8058 21.6681 14.2047 21.6681H27.6872C28.0861 21.6681 28.4094 21.3447 28.4094 20.9458C28.4094 20.5469 28.0861 20.2235 27.6872 20.2235H14.2047Z" fill="#1B6B90"/>
<path d="M18.0568 26.0017C17.6579 26.0017 17.3346 26.3251 17.3346 26.724C17.3346 27.1229 17.6579 27.4463 18.0568 27.4463H23.835C24.2339 27.4463 24.5573 27.1229 24.5573 26.724C24.5573 26.3251 24.2339 26.0017 23.835 26.0017H18.0568Z" fill="#1B6B90"/>
<defs>
<linearGradient id="paint0_linear_702_47" x1="1.92607" y1="-2.93799e-07" x2="46.7071" y2="54.8929" gradientUnits="userSpaceOnUse">
<stop stop-color="#7CB0C8"/>
<stop offset="0.8578" stop-color="#F1F0F0"/>
</linearGradient>
</defs>
</svg>
