<?xml version="1.0" encoding="UTF-8"?>
<svg xmlns="http://www.w3.org/2000/svg" version="1.1" viewBox="0 0 897.8 225.2">
  <!-- Generator: Adobe Illustrator 28.6.0, SVG Export Plug-In . SVG Version: 1.2.0 Build 709)  -->
  <g>
    <g id="Layer_1">
      <polygon points="201.3 10.4 132.3 153.7 63.8 10.4 1 10.4 1 12.9 21.9 36.7 21.9 192.7 0 219.3 0 221.6 51.7 221.6 51.7 219.3 29.8 192.7 29.8 49.2 106.9 207.6 116.5 204.5 192.4 47.8 192.4 195.2 172.5 219.3 172.5 221.6 260.4 221.6 260.4 219.3 240.6 195.2 240.6 36.8 260.5 12.9 260.5 10.4 201.3 10.4"/>
      <path d="M344.7,219.7c5.4,0,10.1-1.6,14.3-4.8,4.2-3.2,7.7-7.9,10.6-14,2.9-6.2,5.1-13.7,6.5-22.8,1.5-9,2.2-19.3,2.2-31s-.8-21.8-2.3-30.8c-1.5-9-3.7-16.5-6.5-22.7s-6.4-10.9-10.6-14.1c-4.2-3.2-9-4.8-14.4-4.8s-10.3,1.6-14.5,4.8c-4.2,3.2-7.6,7.9-10.4,14.1s-4.9,13.7-6.4,22.7c-1.5,8.9-2.2,19.2-2.2,30.7,0,23.2,2.9,41.1,8.6,53.6,5.7,12.6,14.1,18.9,25,18.9M344.5,225.2c-11.5,0-22.2-2-32.1-5.9-9.8-3.9-18.3-9.3-25.5-16.2-7.2-6.9-12.8-15.1-17-24.7-4.1-9.5-6.2-19.9-6.2-31.2s2.1-21.5,6.2-31c4.1-9.5,9.8-17.7,17-24.7s15.8-12.4,25.6-16.4c9.8-3.9,20.5-5.9,31.9-5.9s22.3,2,32.1,5.9c9.9,3.9,18.4,9.4,25.6,16.4,7.2,7,12.8,15.2,17,24.7,4.1,9.5,6.2,19.8,6.2,31s-2,21.6-6.2,31.2c-4.1,9.5-9.8,17.8-17,24.7-7.2,6.9-15.7,12.3-25.6,16.2-9.9,3.9-20.6,5.9-32.1,5.9"/>
      <path d="M517,75.7c-4.3,0-8.1,1.3-11.5,4-3.3,2.7-6.1,6.5-8.4,11.4-2.2,4.9-4,11-5.3,18.1-1.3,7.1-2,15.1-2.2,23.9l51.2-3.1c0-9.6-.5-17.8-1.5-24.7-1-6.8-2.5-12.5-4.4-16.9-2-4.4-4.4-7.6-7.4-9.7-3-2.1-6.5-3.1-10.6-3.1M581.9,188.9c-3.5,5.6-7.5,10.6-11.8,15s-9.3,8.3-14.8,11.4-11.5,5.6-18.2,7.3c-6.7,1.7-14,2.5-22,2.5s-20.7-1.9-29.6-5.6c-8.9-3.7-16.4-8.9-22.7-15.5-6.3-6.6-11.1-14.5-14.5-23.7-3.4-9.2-5.1-19.3-5.1-30.4s1.9-22.9,5.6-32.8c3.7-9.9,8.9-18.4,15.6-25.5,6.7-7.1,14.7-12.6,24.1-16.5,9.4-3.9,19.6-5.9,30.7-5.9s19.8,1.8,28,5.4c8.2,3.6,15.1,8.4,20.8,14.6,5.7,6.2,10,13.4,12.9,21.7,2.9,8.3,4.4,17.1,4.4,26.5h-95.9c-.1.7-.1,1.3-.1,1.9v2.1c.6,19.1,5.1,33.8,13.6,44.2,8.5,10.4,20.3,15.6,35.4,15.6s8.6-.4,12.7-1.2c4.1-.8,7.8-1.8,11.4-3.2,3.5-1.3,6.7-2.8,9.6-4.5,2.9-1.7,5.4-3.4,7.6-5.3l2.2,1.9h0Z"/>
      <polygon points="652 0 595 13.1 595 15.6 608.8 29.2 608.8 201.1 590.7 219.4 590.7 221.6 671.9 221.6 671.9 219.4 653.8 200.9 653.8 1.6 652 0"/>
      <path d="M746.3,25.1c0,3.5-.6,6.7-1.9,9.6-1.3,2.9-3,5.4-5.3,7.4s-4.9,3.7-8.1,4.8c-3.1,1.2-6.5,1.8-10.1,1.8s-7-.6-10-1.8-5.7-2.8-7.9-4.8c-2.2-2.1-3.9-4.5-5.2-7.4-1.3-2.9-1.9-6.1-1.9-9.6s.6-6.6,1.9-9.5c1.3-2.9,3-5.4,5.2-7.5,2.2-2.1,4.8-3.7,7.9-4.9,3.1-1.2,6.4-1.8,10-1.8s7,.6,10.1,1.8c3.1,1.2,5.8,2.9,8.1,5,2.2,2.1,4,4.6,5.3,7.5s1.9,6,1.9,9.3M745.4,70.9v130.1l18,18.5v2.2h-81.2v-2.2l18.1-18.4v-102.6l-16.4-13.7v-2.5l59.9-13.1,1.6,1.6h0Z"/>
      <path d="M879,114.6c-2.5-3.6-5.1-7.3-7.6-11.2-2.5-3.8-5.1-7.5-7.6-11-2.5-3.5-5-6.8-7.4-9.7s-4.8-5.3-7.2-7.1c-.9-.3-2.1-.5-3.7-.7-1.6-.2-3.2-.2-4.6-.2-4.4,0-8.2.6-11.5,1.8-3.2,1.2-5.9,2.9-8,4.9-2.1,2.1-3.7,4.4-4.7,7.1s-1.5,5.5-1.5,8.4.9,7.1,2.8,10.1c1.9,3,4.4,5.8,7.6,8.3,3.2,2.5,7,4.9,11.4,7.2,4.3,2.2,9,4.6,13.9,6.9,5.7,2.6,11.3,5.5,16.9,8.6s10.6,6.6,15,10.5c4.5,3.9,8.1,8.4,10.9,13.4,2.8,5,4.2,10.9,4.2,17.7s-1.7,14.1-5.1,19.7c-3.4,5.6-8,10.4-14,14.2-5.9,3.8-12.9,6.7-20.9,8.6-8,1.9-16.6,2.9-25.8,2.9s-10.1-.3-15.4-.9c-5.3-.6-10.4-1.5-15.3-2.6s-9.5-2.3-13.8-3.7-7.8-2.9-10.6-4.3l9.4-39.9h2.9c1.6,3.4,3.5,7.3,5.8,11.7,2.3,4.4,4.8,8.7,7.5,12.9,2.7,4.3,5.6,8.2,8.7,11.9,3.1,3.7,6.2,6.5,9.5,8.4,1.6.3,3.6.6,6,.8,2.5.2,4.6.4,6.5.4,5.5,0,10-.7,13.7-2,3.6-1.3,6.5-3.1,8.7-5.2,2.2-2.1,3.7-4.6,4.5-7.4.9-2.8,1.3-5.7,1.3-8.7s-1-7.4-2.9-10.4c-1.9-3-4.5-5.7-7.8-8.2-3.3-2.5-7.2-4.8-11.6-7.1-4.4-2.2-9.1-4.5-14.1-7-5.5-2.6-11-5.4-16.4-8.4s-10.5-6.4-15-10.3-8.1-8.4-10.9-13.6-4.2-11.2-4.2-18.1,1.5-14.1,4.6-19.7c3.1-5.6,7.4-10.2,13-13.8s12.2-6.3,20-8.1c7.7-1.8,16.2-2.6,25.5-2.6s7.7.2,11.8.7c4.2.4,8.3,1.1,12.3,1.8,4.1.8,8,1.7,11.9,2.6,3.9,1,7.4,2.1,10.5,3.2l-6.8,37h-2.2,0Z"/>
    </g>
  </g>
</svg>