<svg width="146" height="146" viewBox="0 0 146 146" fill="none" xmlns="http://www.w3.org/2000/svg">
<path d="M56.3332 53C56.3332 43.7953 63.7951 36.3333 72.9999 36.3333C82.2046 36.3333 89.6665 43.7953 89.6665 53V53.039M56.3332 53C58.4259 52.9603 60.7756 53 63.5343 53H82.4654C85.2066 53 87.5834 53 89.6665 53.039M56.3332 53C50.6037 53.1088 47.0607 53.5554 44.3065 55.0759C41.1028 56.8446 38.5731 59.6168 37.1034 62.9614M37.1034 62.9614L49.0252 74.8832C60.1363 85.9943 65.6919 91.5499 72.5954 91.5499C79.499 91.5499 85.0545 85.9943 96.1657 74.8832L108.275 62.7742C108.393 62.6555 108.524 62.5497 108.665 62.4587V62.4587M37.1034 62.9614C37.0581 63.0644 37.0138 63.1679 36.9706 63.272C35.3227 67.2384 35.892 72.3628 37.0308 82.6115C37.9628 91.0001 38.4289 95.1944 40.3639 98.3596C42.0684 101.148 44.555 103.374 47.5145 104.76C50.8741 106.333 55.0942 106.333 63.5343 106.333H82.4654C90.9056 106.333 95.1257 106.333 98.4853 104.76C101.445 103.374 103.931 101.148 105.636 98.3596C107.571 95.1944 108.037 91.0001 108.969 82.6115C110.108 72.3628 110.677 67.2384 109.029 63.272C108.915 62.9971 108.794 62.7259 108.665 62.4587M89.6665 53.039C95.4198 53.1467 98.9327 53.5518 101.693 55.0759C104.735 56.7552 107.169 59.3391 108.665 62.4587" stroke="#E97132" stroke-width="3"/>
</svg>
