<svg width="146" height="146" viewBox="0 0 146 146" fill="none" xmlns="http://www.w3.org/2000/svg">
<path d="M56.333 82.5239L61.2008 72.6004C63.6595 67.5881 70.8858 67.8329 72.9997 73.0001C75.1136 78.1673 82.3399 78.4121 84.7986 73.3998L89.6664 63.4763M72.9997 104.754C64.5088 104.754 60.2633 104.754 56.6815 102.917C56.191 102.665 55.7133 102.389 55.2501 102.09C51.8679 99.9073 49.7452 96.2306 45.4997 88.8772C41.2542 81.5239 39.1315 77.8472 38.9319 73.8266C38.9045 73.2759 38.9045 72.7243 38.9319 72.1737C39.1315 68.153 41.2542 64.4764 45.4997 57.123C49.7452 49.7696 51.8679 46.0929 55.2501 43.9097C55.7132 43.6108 56.191 43.3349 56.6815 43.0833C60.2633 41.2459 64.5088 41.2458 72.9997 41.2458C81.4906 41.2458 85.7361 41.2458 89.3179 43.0833C89.8084 43.3349 90.2861 43.6108 90.7493 43.9097C94.1315 46.0929 96.2542 49.7696 100.5 57.123C104.745 64.4763 106.868 68.153 107.068 72.1737C107.095 72.7243 107.095 73.2759 107.068 73.8266C106.868 77.8472 104.745 81.5239 100.5 88.8772C96.2542 96.2306 94.1315 99.9073 90.7493 102.09C90.2862 102.389 89.8084 102.665 89.3179 102.917C85.7361 104.754 81.4906 104.754 72.9997 104.754Z" stroke="#E97132" stroke-width="3" stroke-linecap="round"/>
</svg>
