<svg width="146" height="146" viewBox="0 0 146 146" fill="none" xmlns="http://www.w3.org/2000/svg">
<path d="M39.6665 103C44.1098 105.073 49.9432 106.333 56.3332 106.333C62.7232 106.333 68.5598 105.073 72.9998 103C77.4398 100.927 83.2765 99.6667 89.6665 99.6667C96.0565 99.6667 101.893 100.927 106.333 103M72.9998 93C68.5598 95.0733 62.7232 96.3333 56.3332 96.3333C52.7798 96.3333 49.3998 95.9433 46.3332 95.2433C44.3632 94.79 43.3765 94.5667 42.1965 93.63C41.4243 92.969 40.7851 92.1669 40.3132 91.2667C39.6665 89.91 39.6665 88.59 39.6665 85.9533V50.0467C39.6665 46.7633 43.1332 44.51 46.3332 45.2433C49.3998 45.9433 52.7798 46.3333 56.3332 46.3333C62.7232 46.3333 68.5598 45.0733 72.9998 43C77.4398 40.9267 83.2765 39.6667 89.6665 39.6667C93.2198 39.6667 96.5998 40.0567 99.6665 40.7567C101.637 41.21 102.623 41.4367 103.803 42.37C104.476 42.9033 105.317 43.9567 105.687 44.7333C106.333 46.0933 106.333 47.41 106.333 50.0467V85.9533C106.333 89.2367 102.867 91.49 99.6665 90.7567C96.5998 90.0567 93.2198 89.6667 89.6665 89.6667C83.2765 89.6667 77.4398 90.9267 72.9998 93Z" stroke="#E97132" stroke-width="2.8" stroke-linecap="round" stroke-linejoin="round"/>
<path d="M51.333 71.3333V71.3633M94.6663 64.64V64.6733M81.333 68C81.333 70.2101 80.455 72.3298 78.8922 73.8926C77.3294 75.4554 75.2098 76.3333 72.9997 76.3333C70.7895 76.3333 68.6699 75.4554 67.1071 73.8926C65.5443 72.3298 64.6663 70.2101 64.6663 68C64.6663 65.7899 65.5443 63.6703 67.1071 62.1074C68.6699 60.5446 70.7895 59.6667 72.9997 59.6667C75.2098 59.6667 77.3294 60.5446 78.8922 62.1074C80.455 63.6703 81.333 65.7899 81.333 68Z" stroke="#E97132" stroke-width="2.8" stroke-linecap="round" stroke-linejoin="round"/>
</svg>
