<svg width="146" height="146" viewBox="0 0 146 146" fill="none" xmlns="http://www.w3.org/2000/svg">
<path d="M60.5 98V108M45.5 38H75.5C76.8261 38 78.0979 38.5268 79.0355 39.4645C79.9732 40.4021 80.5 41.6739 80.5 43V107.375C80.5 107.541 80.4342 107.7 80.3169 107.817C80.1997 107.934 80.0408 108 79.875 108H40.5V43C40.5 41.6739 41.0268 40.4021 41.9645 39.4645C42.9021 38.5268 44.1739 38 45.5 38ZM83 63H100.5C101.826 63 103.098 63.5268 104.036 64.4645C104.973 65.4021 105.5 66.6739 105.5 68V108H80.5V65.5C80.5 64.837 80.7634 64.2011 81.2322 63.7322C81.7011 63.2634 82.337 63 83 63Z" stroke="#E97132" stroke-width="2.5" stroke-linecap="round" stroke-linejoin="round"/>
<path d="M60.8242 99.9789C60.3064 100.047 59.7805 99.9505 59.3201 99.7041C58.8597 99.4576 58.4881 99.0732 58.2573 98.6048C58.0266 98.1363 57.9483 97.6074 58.0335 97.0922C58.1187 96.5771 58.363 96.1015 58.7322 95.7322C59.1015 95.363 59.5771 95.1186 60.0922 95.0335C60.6074 94.9483 61.1363 95.0266 61.6048 95.2573C62.0732 95.4881 62.4576 95.8597 62.7041 96.3201C62.9505 96.7805 63.0466 97.3064 62.9789 97.8242C62.9074 98.3706 62.6574 98.8781 62.2678 99.2678C61.8781 99.6574 61.3706 99.9074 60.8242 99.9789ZM60.8242 87.4789C60.3064 87.5466 59.7805 87.4505 59.3201 87.2041C58.8597 86.9576 58.4881 86.5732 58.2573 86.1048C58.0266 85.6363 57.9483 85.1074 58.0335 84.5922C58.1187 84.0771 58.363 83.6015 58.7322 83.2322C59.1015 82.863 59.5771 82.6186 60.0922 82.5335C60.6074 82.4483 61.1363 82.5266 61.6048 82.7573C62.0732 82.9881 62.4576 83.3597 62.7041 83.8201C62.9505 84.2805 63.0466 84.8064 62.9789 85.3242C62.9074 85.8706 62.6574 86.3781 62.2678 86.7678C61.8781 87.1574 61.3706 87.4074 60.8242 87.4789ZM60.8242 74.9789C60.3064 75.0466 59.7805 74.9505 59.3201 74.7041C58.8597 74.4576 58.4881 74.0732 58.2573 73.6048C58.0266 73.1363 57.9483 72.6074 58.0335 72.0922C58.1187 71.5771 58.363 71.1015 58.7322 70.7322C59.1015 70.363 59.5771 70.1187 60.0922 70.0335C60.6074 69.9483 61.1363 70.0266 61.6048 70.2573C62.0732 70.4881 62.4576 70.8597 62.7041 71.3201C62.9505 71.7805 63.0466 72.3064 62.9789 72.8242C62.9074 73.3706 62.6574 73.8781 62.2678 74.2678C61.8781 74.6574 61.3706 74.9074 60.8242 74.9789ZM60.8242 62.4789C60.3064 62.5466 59.7805 62.4505 59.3201 62.2041C58.8597 61.9576 58.4881 61.5732 58.2573 61.1048C58.0266 60.6363 57.9483 60.1074 58.0335 59.5922C58.1187 59.0771 58.363 58.6015 58.7322 58.2322C59.1015 57.863 59.5771 57.6187 60.0922 57.5335C60.6074 57.4483 61.1363 57.5266 61.6048 57.7573C62.0732 57.9881 62.4576 58.3597 62.7041 58.8201C62.9505 59.2805 63.0466 59.8064 62.9789 60.3242C62.9074 60.8706 62.6574 61.3781 62.2678 61.7678C61.8781 62.1574 61.3706 62.4074 60.8242 62.4789ZM60.8242 49.9789C60.3064 50.0466 59.7805 49.9505 59.3201 49.7041C58.8597 49.4576 58.4881 49.0732 58.2573 48.6048C58.0266 48.1363 57.9483 47.6074 58.0335 47.0922C58.1187 46.5771 58.363 46.1015 58.7322 45.7322C59.1015 45.363 59.5771 45.1187 60.0922 45.0335C60.6074 44.9483 61.1363 45.0266 61.6048 45.2573C62.0732 45.4881 62.4576 45.8597 62.7041 46.3201C62.9505 46.7805 63.0466 47.3064 62.9789 47.8242C62.9074 48.3706 62.6574 48.8781 62.2678 49.2678C61.8781 49.6574 61.3706 49.9074 60.8242 49.9789ZM73.3242 87.4789C72.8064 87.5466 72.2805 87.4505 71.8201 87.2041C71.3597 86.9576 70.9881 86.5732 70.7573 86.1048C70.5266 85.6363 70.4483 85.1074 70.5335 84.5922C70.6187 84.0771 70.863 83.6015 71.2322 83.2322C71.6015 82.863 72.0771 82.6186 72.5922 82.5335C73.1074 82.4483 73.6363 82.5266 74.1048 82.7573C74.5732 82.9881 74.9576 83.3597 75.2041 83.8201C75.4505 84.2805 75.5466 84.8064 75.4789 85.3242C75.4074 85.8706 75.1574 86.3781 74.7678 86.7678C74.3781 87.1574 73.8706 87.4074 73.3242 87.4789ZM73.3242 74.9789C72.8064 75.0466 72.2805 74.9505 71.8201 74.7041C71.3597 74.4576 70.9881 74.0732 70.7573 73.6048C70.5266 73.1363 70.4483 72.6074 70.5335 72.0922C70.6187 71.5771 70.863 71.1015 71.2322 70.7322C71.6015 70.363 72.0771 70.1187 72.5922 70.0335C73.1074 69.9483 73.6363 70.0266 74.1048 70.2573C74.5732 70.4881 74.9576 70.8597 75.2041 71.3201C75.4505 71.7805 75.5466 72.3064 75.4789 72.8242C75.4074 73.3706 75.1574 73.8781 74.7678 74.2678C74.3781 74.6574 73.8706 74.9074 73.3242 74.9789ZM73.3242 62.4789C72.8064 62.5466 72.2805 62.4505 71.8201 62.2041C71.3597 61.9576 70.9881 61.5732 70.7573 61.1048C70.5266 60.6363 70.4483 60.1074 70.5335 59.5922C70.6187 59.0771 70.863 58.6015 71.2322 58.2322C71.6015 57.863 72.0771 57.6187 72.5922 57.5335C73.1074 57.4483 73.6363 57.5266 74.1048 57.7573C74.5732 57.9881 74.9576 58.3597 75.2041 58.8201C75.4505 59.2805 75.5466 59.8064 75.4789 60.3242C75.4074 60.8706 75.1574 61.3781 74.7678 61.7678C74.3781 62.1574 73.8706 62.4074 73.3242 62.4789ZM73.3242 49.9789C72.8064 50.0466 72.2805 49.9505 71.8201 49.7041C71.3597 49.4576 70.9881 49.0732 70.7573 48.6048C70.5266 48.1363 70.4483 47.6074 70.5335 47.0922C70.6187 46.5771 70.863 46.1015 71.2322 45.7322C71.6015 45.363 72.0771 45.1187 72.5922 45.0335C73.1074 44.9483 73.6363 45.0266 74.1048 45.2573C74.5732 45.4881 74.9576 45.8597 75.2041 46.3201C75.4505 46.7805 75.5466 47.3064 75.4789 47.8242C75.4074 48.3706 75.1574 48.8781 74.7678 49.2678C74.3781 49.6574 73.8706 49.9074 73.3242 49.9789ZM85.8242 99.9789C85.3064 100.047 84.7805 99.9505 84.3201 99.7041C83.8597 99.4576 83.4881 99.0732 83.2573 98.6048C83.0266 98.1363 82.9483 97.6074 83.0335 97.0922C83.1187 96.5771 83.363 96.1015 83.7322 95.7322C84.1015 95.363 84.5771 95.1186 85.0922 95.0335C85.6074 94.9483 86.1363 95.0266 86.6048 95.2573C87.0732 95.4881 87.4576 95.8597 87.7041 96.3201C87.9505 96.7805 88.0466 97.3064 87.9789 97.8242C87.9074 98.3706 87.6574 98.8781 87.2678 99.2678C86.8781 99.6574 86.3706 99.9074 85.8242 99.9789ZM85.8242 87.4789C85.3064 87.5466 84.7805 87.4505 84.3201 87.2041C83.8597 86.9576 83.4881 86.5732 83.2573 86.1048C83.0266 85.6363 82.9483 85.1074 83.0335 84.5922C83.1187 84.0771 83.363 83.6015 83.7322 83.2322C84.1015 82.863 84.5771 82.6186 85.0922 82.5335C85.6074 82.4483 86.1363 82.5266 86.6048 82.7573C87.0732 82.9881 87.4576 83.3597 87.7041 83.8201C87.9505 84.2805 88.0466 84.8064 87.9789 85.3242C87.9074 85.8706 87.6574 86.3781 87.2678 86.7678C86.8781 87.1574 86.3706 87.4074 85.8242 87.4789ZM85.8242 74.9789C85.3064 75.0466 84.7805 74.9505 84.3201 74.7041C83.8597 74.4576 83.4881 74.0732 83.2573 73.6048C83.0266 73.1363 82.9483 72.6074 83.0335 72.0922C83.1187 71.5771 83.363 71.1015 83.7322 70.7322C84.1015 70.363 84.5771 70.1187 85.0922 70.0335C85.6074 69.9483 86.1363 70.0266 86.6048 70.2573C87.0732 70.4881 87.4576 70.8597 87.7041 71.3201C87.9505 71.7805 88.0466 72.3064 87.9789 72.8242C87.9074 73.3706 87.6574 73.8781 87.2678 74.2678C86.8781 74.6574 86.3706 74.9074 85.8242 74.9789Z" fill="#E97132"/>
<path d="M74.3044 74.7799C75.2777 73.8067 75.2737 72.2247 74.2956 71.2466C73.3174 70.2685 71.7355 70.2645 70.7622 71.2378C69.789 72.211 69.7929 73.7929 70.7711 74.7711C71.7492 75.7492 73.3311 75.7532 74.3044 74.7799Z" fill="#E97132"/>
<path d="M61.8242 50.9789C61.3064 51.0466 60.7805 50.9505 60.3201 50.7041C59.8597 50.4576 59.4881 50.0732 59.2573 49.6048C59.0266 49.1363 58.9483 48.6074 59.0335 48.0922C59.1187 47.5771 59.363 47.1015 59.7322 46.7322C60.1015 46.363 60.5771 46.1187 61.0922 46.0335C61.6074 45.9483 62.1363 46.0266 62.6048 46.2573C63.0732 46.4881 63.4576 46.8597 63.7041 47.3201C63.9505 47.7805 64.0466 48.3064 63.9789 48.8242C63.9074 49.3706 63.6574 49.8781 63.2678 50.2678C62.8781 50.6574 62.3706 50.9074 61.8242 50.9789ZM83.9992 95.9992C83.5048 95.9992 83.0214 96.1458 82.6103 96.4205C82.1992 96.6952 81.8787 97.0857 81.6895 97.5425C81.5003 97.9993 81.4508 98.502 81.5472 98.9869C81.6437 99.4719 81.8818 99.9173 82.2314 100.267C82.5811 100.617 83.0265 100.855 83.5115 100.951C83.9964 101.048 84.4991 100.998 84.9559 100.809C85.4127 100.62 85.8032 100.299 86.0779 99.8881C86.3526 99.477 86.4992 98.9937 86.4992 98.4992C86.4992 97.8362 86.2358 97.2003 85.767 96.7314C85.2981 96.2626 84.6622 95.9992 83.9992 95.9992ZM83.9992 83.4992C83.5048 83.4992 83.0214 83.6458 82.6103 83.9205C82.1992 84.1952 81.8787 84.5857 81.6895 85.0425C81.5003 85.4993 81.4508 86.002 81.5472 86.4869C81.6437 86.9719 81.8818 87.4173 82.2314 87.767C82.5811 88.1166 83.0265 88.3547 83.5115 88.4512C83.9964 88.5476 84.4991 88.4981 84.9559 88.3089C85.4127 88.1197 85.8032 87.7993 86.0779 87.3881C86.3526 86.977 86.4992 86.4937 86.4992 85.9992C86.4992 85.3362 86.2358 84.7003 85.767 84.2314C85.2981 83.7626 84.6622 83.4992 83.9992 83.4992ZM83.9992 70.9992C83.5048 70.9992 83.0214 71.1458 82.6103 71.4205C82.1992 71.6952 81.8787 72.0857 81.6895 72.5425C81.5003 72.9993 81.4508 73.502 81.5472 73.9869C81.6437 74.4719 81.8818 74.9173 82.2314 75.267C82.5811 75.6166 83.0265 75.8547 83.5115 75.9512C83.9964 76.0476 84.4991 75.9981 84.9559 75.8089C85.4127 75.6197 85.8032 75.2993 86.0779 74.8881C86.3526 74.477 86.4992 73.9937 86.4992 73.4992C86.4992 72.8362 86.2358 72.2003 85.767 71.7314C85.2981 71.2626 84.6622 70.9992 83.9992 70.9992ZM73.9992 95.9992C73.5048 95.9992 73.0214 96.1458 72.6103 96.4205C72.1992 96.6952 71.8787 97.0857 71.6895 97.5425C71.5003 97.9993 71.4508 98.502 71.5472 98.9869C71.6437 99.4719 71.8818 99.9173 72.2314 100.267C72.5811 100.617 73.0265 100.855 73.5115 100.951C73.9964 101.048 74.4991 100.998 74.9559 100.809C75.4127 100.62 75.8032 100.299 76.0779 99.8881C76.3526 99.477 76.4992 98.9937 76.4992 98.4992C76.4992 97.8362 76.2358 97.2003 75.767 96.7314C75.2981 96.2626 74.6622 95.9992 73.9992 95.9992ZM73.9992 83.4992C73.5048 83.4992 73.0214 83.6458 72.6103 83.9205C72.1992 84.1952 71.8787 84.5857 71.6895 85.0425C71.5003 85.4993 71.4508 86.002 71.5472 86.4869C71.6437 86.9719 71.8818 87.4173 72.2314 87.767C72.5811 88.1166 73.0265 88.3547 73.5115 88.4512C73.9964 88.5476 74.4991 88.4981 74.9559 88.3089C75.4127 88.1197 75.8032 87.7993 76.0779 87.3881C76.3526 86.977 76.4992 86.4937 76.4992 85.9992C76.4992 85.3362 76.2358 84.7003 75.767 84.2314C75.2981 83.7626 74.6622 83.4992 73.9992 83.4992ZM73.9992 70.9992C73.5048 70.9992 73.0214 71.1458 72.6103 71.4205C72.1992 71.6952 71.8787 72.0857 71.6895 72.5425C71.5003 72.9993 71.4508 73.502 71.5472 73.9869C71.6437 74.4719 71.8818 74.9173 72.2314 75.267C72.5811 75.6166 73.0265 75.8547 73.5115 75.9512C73.9964 76.0476 74.4991 75.9981 74.9559 75.8089C75.4127 75.6197 75.8032 75.2993 76.0779 74.8881C76.3526 74.477 76.4992 73.9937 76.4992 73.4992C76.4992 72.8362 76.2358 72.2003 75.767 71.7314C75.2981 71.2626 74.6622 70.9992 73.9992 70.9992Z" fill="#E97132"/>
</svg>
