<svg width="146" height="146" viewBox="0 0 146 146" fill="none" xmlns="http://www.w3.org/2000/svg">
<path d="M83 103H63M83 103V75C83 74.4696 82.7893 73.9609 82.4142 73.5858C82.0391 73.2107 81.5304 73 81 73H65C64.4696 73 63.9609 73.2107 63.5858 73.5858C63.2107 73.9609 63 74.4696 63 75V103M83 103H101C101.53 103 102.039 102.789 102.414 102.414C102.789 102.039 103 101.53 103 101V93.3333C103 92.8029 102.789 92.2942 102.414 91.9191C102.039 91.544 101.53 91.3333 101 91.3333H85C84.4696 91.3333 83.9609 91.544 83.5858 91.9191C83.2107 92.2942 83 92.8029 83 93.3333V103ZM63 103V86.6667C63 86.1362 62.7893 85.6275 62.4142 85.2525C62.0391 84.8774 61.5304 84.6667 61 84.6667H45C44.4696 84.6667 43.9609 84.8774 43.5858 85.2525C43.2107 85.6275 43 86.1362 43 86.6667V101C43 101.53 43.2107 102.039 43.5858 102.414C43.9609 102.789 44.4696 103 45 103H63ZM69.02 50.0433L72.05 43.62C72.1318 43.4364 72.2651 43.2804 72.4337 43.1709C72.6023 43.0615 72.799 43.0032 73 43.0032C73.201 43.0032 73.3977 43.0615 73.5663 43.1709C73.7349 43.2804 73.8682 43.4364 73.95 43.62L76.9833 50.0433L83.7567 51.08C84.6267 51.2133 84.9733 52.3333 84.3433 52.9733L79.4433 57.9733L80.6 65.0333C80.7467 65.94 79.84 66.6333 79.06 66.2033L73 62.87L66.94 66.2033C66.1633 66.63 65.2533 65.94 65.4 65.0333L66.5567 57.9733L61.6567 52.9733C61.0233 52.3333 61.3733 51.2133 62.24 51.08L69.02 50.0433Z" stroke="#E97132" stroke-width="2.8" stroke-linecap="round" stroke-linejoin="round"/>
</svg>
